{"title":"Indiscreet(1958)MP-4[DaScubaDude]","uid":12350505,"size":1234991570,"categoryP":"video","categoryS":"movies","magnet":"?xt=urn:btih:5db698125f91c2793faa6dc1470f4e465c1e7adf&amp;dn=Indiscreet%281958%29MP-4%5BDaScubaDude%5D&amp;tr=udp%3A%2F%2Ftracker.openbittorrent.com%3A80&amp;tr=udp%3A%2F%2Fopen.demonii.com%3A1337&amp;tr=udp%3A%2F%2Ftracker.coppersurfer.tk%3A6969&amp;tr=udp%3A%2F%2Fexodus.desync.com%3A6969","seeders":3,"leechers":0,"uploader":"dascuba","files":1,"time":1441414281,"description":"\nContact the Filmmakers on IMDbPro Â»\nSEE RANK\nIndiscreet (1958)\nApproved  |  100 min  |  Comedy, Romance  |  20 May 1958 (USA)\n6.9 Your rating:   -/10   Ratings: 6.9/10 from 5,284 users   \nReviews: 69 user | 38 critic\nAnna Kalman is a London based actress. She has been unable to find love in her life. The reason why she came home early from a vacation to Majorca fits into that theme, as the man she met ... See full summary Â»\n\nDirector: Stanley Donen\nWriters: Norman Krasna (screenplay), Norman Krasna (play)\nStars: Cary Grant, Ingrid Bergman, Cecil Parker\n\nGeneral\nComplete name                            : C:IndiscreetINDISCREET_Title1.mp4\nFormat                                   : MPEG-4\nFormat profile                           : Base Media\nCodec ID                                 : isom\nFile size                                : 1.15 GiB\nDuration                                 : 1h 40mn\nOverall bit rate mode                    : Constant\nOverall bit rate                         : 1 635 Kbps\nMovie name                               : INDISCREET_Title1\nWriting application                      : Lavf54.6.100\n\nVideo\nID                                       : 1\nFormat                                   : MPEG-4 Visual\nFormat settings, BVOP                    : No\nFormat settings, QPel                    : No\nFormat settings, GMC                     : No warppoints\nFormat settings, Matrix                  : Default (H.263)\nCodec ID                                 : 20\nDuration                                 : 1h 40mn\nBit rate mode                            : Constant\nBit rate                                 : 1 501 Kbps\nWidth                                    : 720 pixels\nHeight                                   : 540 pixels\nDisplay aspect ratio                     : 4:3\nFrame rate mode                          : Constant\nFrame rate                               : 29.970 fps\nColor space                              : YUV\nChroma subsampling                       : 4:2:0\nBit depth                                : 8 bits\nScan type                                : Progressive\nCompression mode                         : Lossy\nBits/(Pixel*Frame)                       : 0.129\nStream size                              : 1.06 GiB (92%)\nWriting library                          : Lavc54.23.100\n\nAudio\nID                                       : 2\nFormat                                   : MPEG Audio\nFormat version                           : Version 1\nFormat profile                           : Layer 3\nCodec ID                                 : 6B\nDuration                                 : 1h 40mn\nBit rate mode                            : Constant\nBit rate                                 : 128 Kbps\nChannel(s)                               : 2 channels\nSampling rate                            : 44.1 KHz\nCompression mode                         : Lossy\nStream size                              : 92.2 MiB (8%)\nWriting library                          : LAME3.99.5","torrent":{"xt":"urn:btih:5db698125f91c2793faa6dc1470f4e465c1e7adf","amp;dn":"Indiscreet%281958%29MP-4%5BDaScubaDude%5D","amp;tr":["udp%3A%2F%2Ftracker.openbittorrent.com%3A80","udp%3A%2F%2Fopen.demonii.com%3A1337","udp%3A%2F%2Ftracker.coppersurfer.tk%3A6969","udp%3A%2F%2Fexodus.desync.com%3A6969"],"infoHash":"5db698125f91c2793faa6dc1470f4e465c1e7adf","infoHashBuffer":{"type":"Buffer","data":[93,182,152,18,95,145,194,121,63,170,109,193,71,15,78,70,92,30,122,223]},"announce":[],"urlList":[]}}